<svg width="200" height="39" viewBox="0 0 200 39" fill="none" xmlns="http://www.w3.org/2000/svg">
<path d="M155.426 36.8822V29.9075H158.116C158.481 29.9075 158.808 29.9886 159.098 30.151C159.387 30.3133 159.61 30.5347 159.771 30.8136C159.931 31.0926 160.01 31.401 160.01 31.7404C160.01 32.133 159.905 32.4695 159.695 32.7514C159.486 33.0333 159.242 33.231 158.963 33.3447V33.3948C159.276 33.4745 159.545 33.662 159.771 33.9571C159.996 34.2523 160.11 34.6168 160.11 35.0477C160.11 35.4005 160.032 35.7148 159.875 35.9937C159.719 36.2727 159.498 36.4911 159.213 36.6461C158.926 36.8025 158.594 36.8807 158.217 36.8807H155.427L155.426 36.8822ZM158.116 33.2354C158.422 33.2354 158.69 33.1676 158.923 33.0318C159.157 32.896 159.337 32.7145 159.467 32.4887C159.596 32.2629 159.661 32.0135 159.661 31.7419C159.661 31.4704 159.595 31.2091 159.462 30.9804C159.329 30.7516 159.145 30.5716 158.909 30.4432C158.673 30.3133 158.408 30.2484 158.116 30.2484H155.774V33.2369H158.116V33.2354ZM158.217 36.5428C158.681 36.5428 159.055 36.4055 159.337 36.1295C159.619 35.8535 159.76 35.4934 159.76 35.0492C159.76 34.605 159.619 34.2434 159.337 33.9689C159.055 33.6929 158.681 33.5557 158.217 33.5557H155.776V36.5442H158.217V36.5428Z" fill="#666666"/>
<path d="M164.811 31.8998H165.159L162.888 38.2857C162.808 38.5115 162.705 38.6664 162.579 38.7491C162.452 38.8317 162.277 38.873 162.051 38.873H161.424V38.5543H162.04C162.207 38.5543 162.325 38.5203 162.399 38.4539C162.471 38.3875 162.538 38.2709 162.598 38.1056L162.957 37.1094L160.994 31.8983H161.342L163.037 36.401H163.226L164.809 31.8983L164.811 31.8998Z" fill="#666666"/>
<path d="M172.291 36.8822H168.227V29.9075H168.575V36.5428H172.291V36.8822Z" fill="#666666"/>
<path d="M173.797 30.5155H173.358V30.0771H173.797V30.5155ZM173.747 36.8821H173.407V31.9013H173.747V36.8821Z" fill="#666666"/>
<path d="M175.441 36.8823V31.9014H175.72L175.78 32.7883H175.831C175.963 32.536 176.177 32.3087 176.473 32.1065C176.768 31.9043 177.114 31.8025 177.514 31.8025C177.886 31.8025 178.217 31.8851 178.506 32.0519C178.795 32.2187 179.021 32.4592 179.184 32.7736C179.346 33.0894 179.427 33.4628 179.427 33.8937V36.8823H179.089V33.8937C179.089 33.5484 179.021 33.2414 178.884 32.9728C178.748 32.7042 178.559 32.4946 178.316 32.3456C178.074 32.1965 177.796 32.1213 177.483 32.1213C177.171 32.1213 176.886 32.1995 176.626 32.3559C176.368 32.5124 176.161 32.7249 176.009 32.9935C175.856 33.2621 175.78 33.5631 175.78 33.8952V36.8837H175.441V36.8823Z" fill="#666666"/>
<path d="M181.468 36.8822H181.13V29.9075H181.468V34.2213L184.228 31.8998H184.695L181.787 34.3408L184.796 36.8807H184.328L181.469 34.4604V36.8807L181.468 36.8822Z" fill="#666666"/>
<path d="M187.944 36.8822H187.596V30.2469H185.115V29.9075H190.425V30.2469H187.944V36.8822Z" fill="#666666"/>
<path d="M191.968 36.8822H191.62V29.9075H191.968V36.8822Z" fill="#666666"/>
<path d="M195.116 36.528C194.625 36.2255 194.237 35.8019 193.95 35.2573C193.664 34.7127 193.522 34.0914 193.522 33.3948C193.522 32.6982 193.666 32.0769 193.95 31.5324C194.235 30.9878 194.625 30.5642 195.116 30.2617C195.608 29.9591 196.152 29.8086 196.75 29.8086C197.481 29.8086 198.117 30.0182 198.658 30.4358C199.2 30.8549 199.57 31.4261 199.768 32.1492H199.399C199.213 31.525 198.884 31.035 198.413 30.6793C197.941 30.3237 197.388 30.1466 196.75 30.1466C196.225 30.1466 195.742 30.2823 195.301 30.5554C194.86 30.8284 194.51 31.2091 194.254 31.7006C193.999 32.192 193.871 32.7573 193.871 33.3948C193.871 34.0324 193.999 34.5976 194.254 35.0891C194.51 35.5805 194.858 35.9628 195.301 36.2343C195.742 36.5059 196.226 36.6431 196.75 36.6431C197.394 36.6431 197.95 36.4631 198.419 36.1044C198.887 35.7458 199.215 35.2411 199.401 34.5902H199.77C199.57 35.3341 199.2 35.9185 198.66 36.3435C198.118 36.7686 197.482 36.9811 196.752 36.9811C196.154 36.9811 195.609 36.8305 195.118 36.528H195.116Z" fill="#666666"/>
<path d="M9.08057 14.8629C12.1931 17.0457 14.3241 20.5389 14.6665 24.5413C11.371 22.242 9.41115 18.6513 9.08057 14.8629Z" fill="#00DA00"/>
<path d="M8.38092 11.2354C8.04738 15.0223 6.08602 18.6144 2.79199 20.9123C3.13586 16.9084 5.26546 13.4166 8.38092 11.2354Z" fill="#00E4FF"/>
<path d="M11.1749 8.81502C7.72739 10.4192 3.63789 10.5166 0 8.81207C3.63937 7.1075 7.72886 7.20638 11.1749 8.81502Z" fill="#00B199"/>
<path d="M14.6665 10.0238C11.5526 7.84102 9.42296 4.34776 9.08057 0.345337C12.3761 2.64466 14.336 6.23533 14.6665 10.0238Z" fill="#FF4937"/>
<path d="M15.3662 13.6528C15.6997 9.86582 17.6611 6.27368 20.9551 3.97583C20.6113 7.97973 18.4817 11.4715 15.3662 13.6528Z" fill="#009FFF"/>
<path d="M12.5723 16.0716C16.0198 14.4674 20.1093 14.37 23.7472 16.0746C20.1078 17.7791 16.0183 17.6802 12.5723 16.0716Z" fill="#FFC40D"/>
<path d="M31.1089 24.5178V0.345337H41.8484C43.2062 0.345337 44.4385 0.672969 45.5424 1.32971C46.6478 1.98645 47.517 2.90145 48.1502 4.07473C48.7833 5.24948 49.0991 6.58362 49.0991 8.0801C49.0991 9.57658 48.7818 10.9181 48.1502 12.1032C47.517 13.2897 46.6478 14.2092 45.5424 14.8659C44.437 15.5227 43.2062 15.8503 41.8484 15.8503H34.735V24.5178H31.1089ZM41.7451 12.3969C42.7811 12.3969 43.6622 11.9999 44.3868 11.2059C45.1115 10.4119 45.4745 9.36997 45.4745 8.0801C45.4745 6.79024 45.1174 5.75569 44.4045 4.97203C43.6902 4.18984 42.8047 3.79728 41.7451 3.79728H34.735V12.3954H41.7451V12.3969Z" fill="#666666"/>
<path d="M52.9673 24.5178V7.14893H55.9027L56.248 8.77233H56.4207C56.766 8.24251 57.1852 7.83961 57.6811 7.56363C58.1754 7.28765 58.8381 7.14893 59.666 7.14893H62.7047V10.3603H59.9774C58.8263 10.3603 57.9408 10.6717 57.318 11.293C56.6967 11.9143 56.3853 12.8013 56.3853 13.9524V24.5193H52.9673V24.5178Z" fill="#666666"/>
<path d="M68.2994 23.706C66.9874 22.9356 65.9558 21.8642 65.209 20.4946C64.4608 19.1251 64.0874 17.5651 64.0874 15.8163C64.0874 14.0674 64.4608 12.5414 65.209 11.1719C65.9573 9.80233 66.9874 8.73236 68.2994 7.96051C69.6114 7.19013 71.0725 6.80347 72.684 6.80347C74.2956 6.80347 75.7508 7.18866 77.0525 7.96051C78.3527 8.73236 79.3769 9.80233 80.1266 11.1719C80.8748 12.5414 81.2482 14.0896 81.2482 15.8163C81.2482 17.543 80.8734 19.1266 80.1266 20.4946C79.3784 21.8642 78.3541 22.9356 77.0525 23.706C75.7523 24.4779 74.2956 24.8631 72.684 24.8631C71.0725 24.8631 69.6114 24.4779 68.2994 23.706ZM75.2918 20.961C76.0858 20.4769 76.713 19.7862 77.1735 18.8889C77.6339 17.9916 77.8642 16.9674 77.8642 15.8163C77.8642 14.6652 77.6339 13.6468 77.1735 12.7599C76.713 11.8744 76.0858 11.1881 75.2918 10.7055C74.4978 10.2215 73.6286 9.9809 72.684 9.9809C71.7395 9.9809 70.8717 10.2229 70.0763 10.7055C69.2823 11.1896 68.6551 11.8744 68.1946 12.7599C67.7341 13.6468 67.5039 14.6652 67.5039 15.8163C67.5039 16.9674 67.7341 17.9916 68.1946 18.8889C68.6551 19.7862 69.2823 20.4769 70.0763 20.961C70.8703 21.4451 71.7395 21.6856 72.684 21.6856C73.6286 21.6856 74.4964 21.4436 75.2918 20.961Z" fill="#666666"/>
<path d="M100.586 24.5178H85.2539V0.345337H88.88V21.0644H100.586V24.5178Z" fill="#666666"/>
<path d="M107.112 3.86809H103.383V0.414673H107.112V3.86809ZM106.94 24.5177H103.522V7.14883H106.94V24.5177Z" fill="#666666"/>
<path d="M111.566 24.5177V7.14881H114.501L114.847 8.94488H115.019C115.456 8.39292 116.125 7.89705 117.022 7.46021C117.919 7.02336 118.955 6.80347 120.13 6.80347C121.464 6.80347 122.657 7.10896 123.705 7.71847C124.752 8.32946 125.57 9.18544 126.156 10.2908C126.743 11.3962 127.037 12.6625 127.037 14.0896V24.5177H123.619V14.3656C123.619 13.1229 123.216 12.0869 122.41 11.2575C121.604 10.4281 120.602 10.0148 119.407 10.0148C118.601 10.0148 117.859 10.2111 117.18 10.6022C116.501 10.9948 115.965 11.5231 115.574 12.1902C115.182 12.8588 114.987 13.5834 114.987 14.3656V24.5177H111.569H111.566Z" fill="#666666"/>
<path d="M135.185 24.5178H131.767V0.345337H135.185V15.0563L142.334 7.14886H146.478L138.674 15.6437L146.823 24.5178H142.679L135.185 16.265V24.5178Z" fill="#666666"/>
<path d="M158.633 24.5178H155.007V3.79875H147.409V0.345337H166.195V3.79875H158.633V24.5178Z" fill="#666666"/>
<path d="M173.275 24.5178H169.648V0.345337H173.275V24.5178Z" fill="#666666"/>
<path d="M183.304 23.2737C181.543 22.2155 180.144 20.7412 179.108 18.8536C178.072 16.966 177.554 14.8246 177.554 12.4308C177.554 10.037 178.072 7.89563 179.108 6.00806C180.144 4.12049 181.543 2.64762 183.304 1.58798C185.065 0.529819 187.016 0 189.157 0C190.999 0 192.667 0.374858 194.165 1.1231C195.661 1.87134 196.91 2.88965 197.912 4.17952C198.914 5.46938 199.609 6.90683 200 8.49629H196.237C195.73 6.99981 194.849 5.78521 193.595 4.85249C192.34 3.91977 190.862 3.45342 189.157 3.45342C187.706 3.45342 186.371 3.82827 185.152 4.57504C183.931 5.32328 182.965 6.38292 182.252 7.75247C181.537 9.12204 181.182 10.682 181.182 12.4323C181.182 14.1826 181.539 15.7426 182.252 17.1106C182.965 18.4802 183.931 19.5398 185.152 20.2881C186.372 21.0363 187.708 21.4097 189.157 21.4097C190.906 21.4097 192.402 20.9315 193.647 19.9767C194.891 19.0218 195.753 17.7615 196.237 16.1956H200C199.609 17.8308 198.918 19.3037 197.928 20.6157C196.938 21.9277 195.695 22.9637 194.198 23.7238C192.702 24.4838 191.021 24.8631 189.157 24.8631C187.016 24.8631 185.065 24.3333 183.304 23.2751V23.2737Z" fill="#666666"/>
</svg>
