<svg width="155" height="30" viewBox="0 0 155 30" fill="none" xmlns="http://www.w3.org/2000/svg">
<path d="M119.949 28.4636V23.0809H122.025C122.306 23.0809 122.559 23.1435 122.782 23.2688C123.006 23.3941 123.178 23.5649 123.302 23.7802C123.426 23.9955 123.486 24.2335 123.486 24.4955C123.486 24.7984 123.405 25.0581 123.244 25.2756C123.082 25.4932 122.894 25.6458 122.679 25.7335V25.7722C122.92 25.8337 123.128 25.9784 123.302 26.2062C123.476 26.4339 123.564 26.7153 123.564 27.0478C123.564 27.3201 123.503 27.5626 123.383 27.7779C123.262 27.9932 123.091 28.1617 122.871 28.2813C122.65 28.4021 122.394 28.4624 122.102 28.4624H119.95L119.949 28.4636ZM122.025 25.6492C122.261 25.6492 122.468 25.5968 122.648 25.492C122.828 25.3873 122.967 25.2472 123.067 25.0729C123.167 24.8986 123.218 24.7062 123.218 24.4966C123.218 24.287 123.166 24.0854 123.064 23.9089C122.961 23.7324 122.819 23.5934 122.637 23.4943C122.454 23.3941 122.251 23.344 122.025 23.344H120.218V25.6503H122.025V25.6492ZM122.102 28.2016C122.461 28.2016 122.749 28.0957 122.967 27.8827C123.184 27.6697 123.294 27.3918 123.294 27.049C123.294 26.7062 123.184 26.4271 122.967 26.2153C122.749 26.0023 122.461 25.8964 122.102 25.8964H120.219V28.2027H122.102V28.2016Z" fill="#666666"/>
<path d="M127.191 24.6185H127.46L125.707 29.5467C125.646 29.721 125.566 29.8406 125.469 29.9044C125.371 29.9681 125.236 30 125.062 30H124.578V29.754H125.054C125.182 29.754 125.273 29.7278 125.33 29.6766C125.386 29.6253 125.437 29.5353 125.484 29.4078L125.761 28.639L124.246 24.6173H124.515L125.822 28.0923H125.968L127.19 24.6173L127.191 24.6185Z" fill="#666666"/>
<path d="M132.965 28.4636H129.828V23.0809H130.097V28.2016H132.965V28.4636Z" fill="#666666"/>
<path d="M134.126 23.5501H133.788V23.2119H134.126V23.5501ZM134.088 28.4636H133.826V24.6196H134.088V28.4636Z" fill="#666666"/>
<path d="M135.396 28.4636V24.6196H135.611L135.657 25.3041H135.696C135.799 25.1094 135.964 24.934 136.192 24.7779C136.419 24.6219 136.687 24.5433 136.996 24.5433C137.283 24.5433 137.538 24.6071 137.761 24.7358C137.984 24.8645 138.159 25.0501 138.284 25.2927C138.409 25.5365 138.472 25.8246 138.472 26.1572V28.4636H138.211V26.1572C138.211 25.8907 138.159 25.6538 138.053 25.4465C137.948 25.2392 137.802 25.0775 137.614 24.9624C137.427 24.8474 137.213 24.7893 136.972 24.7893C136.73 24.7893 136.511 24.8497 136.31 24.9704C136.111 25.0911 135.951 25.2551 135.834 25.4624C135.716 25.6697 135.657 25.9021 135.657 26.1583V28.4647H135.396V28.4636Z" fill="#666666"/>
<path d="M140.046 28.4636H139.786V23.0809H140.046V26.41L142.176 24.6185H142.537L140.292 26.5023L142.615 28.4624H142.254L140.048 26.5945V28.4624L140.046 28.4636Z" fill="#666666"/>
<path d="M145.044 28.4636H144.775V23.3428H142.861V23.0809H146.959V23.3428H145.044V28.4636Z" fill="#666666"/>
<path d="M148.15 28.4636H147.881V23.0809H148.15V28.4636Z" fill="#666666"/>
<path d="M150.58 28.1902C150.2 27.9567 149.901 27.6299 149.68 27.2096C149.459 26.7893 149.35 26.3098 149.35 25.7722C149.35 25.2346 149.46 24.7551 149.68 24.3349C149.9 23.9146 150.2 23.5877 150.58 23.3542C150.959 23.1208 151.379 23.0046 151.84 23.0046C152.404 23.0046 152.895 23.1663 153.313 23.4886C153.731 23.8121 154.017 24.2529 154.17 24.811H153.885C153.741 24.3292 153.487 23.951 153.124 23.6766C152.76 23.4021 152.333 23.2654 151.84 23.2654C151.435 23.2654 151.063 23.3702 150.722 23.5809C150.381 23.7916 150.112 24.0854 149.915 24.4647C149.717 24.844 149.618 25.2802 149.618 25.7722C149.618 26.2643 149.717 26.7005 149.915 27.0797C150.112 27.459 150.38 27.754 150.722 27.9636C151.063 28.1731 151.436 28.2791 151.84 28.2791C152.337 28.2791 152.766 28.1401 153.129 27.8633C153.49 27.5866 153.743 27.1971 153.886 26.6948H154.171C154.017 27.2688 153.731 27.7198 153.314 28.0479C152.896 28.3759 152.405 28.5399 151.842 28.5399C151.38 28.5399 150.96 28.4237 150.581 28.1902H150.58Z" fill="#666666"/>
<path d="M7.00781 11.4704C9.40986 13.1549 11.0545 15.8508 11.3187 18.9396C8.77547 17.1652 7.26294 14.3941 7.00781 11.4704Z" fill="#00DA00"/>
<path d="M6.468 8.67084C6.21059 11.5934 4.69693 14.3656 2.15479 16.1389C2.42016 13.049 4.06367 10.3542 6.468 8.67084Z" fill="#00E4FF"/>
<path d="M8.62415 6.80299C5.96355 8.04104 2.80752 8.11621 0 6.80072C2.80866 5.48523 5.96469 5.56154 8.62415 6.80299Z" fill="#00B199"/>
<path d="M11.3187 7.73576C8.91556 6.05125 7.27205 3.35535 7.00781 0.26651C9.55109 2.041 11.0636 4.81207 11.3187 7.73576Z" fill="#FF4937"/>
<path d="M11.8589 10.5365C12.1163 7.61392 13.63 4.84171 16.1721 3.06836C15.9067 6.15834 14.2632 8.8531 11.8589 10.5365Z" fill="#009FFF"/>
<path d="M9.70264 12.4032C12.3632 11.1652 15.5193 11.09 18.3268 12.4055C15.5181 13.721 12.3621 13.6447 9.70264 12.4032Z" fill="#FFC40D"/>
<path d="M24.0078 18.9214V0.26651H32.296C33.3438 0.26651 34.2948 0.519357 35.1468 1.02619C35.9998 1.53302 36.6707 2.23918 37.1593 3.14464C37.6479 4.05125 37.8916 5.08086 37.8916 6.23576C37.8916 7.39066 37.6468 8.42596 37.1593 9.34054C36.6707 10.2563 35.9998 10.9658 35.1468 11.4727C34.2937 11.9795 33.3438 12.2323 32.296 12.2323H26.8062V18.9214H24.0078ZM32.2162 9.56719C33.0158 9.56719 33.6957 9.26082 34.255 8.64806C34.8142 8.0353 35.0944 7.2312 35.0944 6.23576C35.0944 5.24031 34.8187 4.44191 34.2686 3.83712C33.7174 3.23348 33.034 2.93052 32.2162 2.93052H26.8062V9.56605H32.2162V9.56719Z" fill="#666666"/>
<path d="M40.877 18.9214V5.51709H43.1423L43.4088 6.76994H43.5421C43.8086 6.36105 44.1321 6.05012 44.5148 5.83714C44.8963 5.62415 45.4077 5.51709 46.0467 5.51709H48.3918V7.99545H46.287C45.3986 7.99545 44.7152 8.23577 44.2346 8.71527C43.7551 9.19477 43.5148 9.87928 43.5148 10.7677V18.9226H40.877V18.9214Z" fill="#666666"/>
<path d="M52.7096 18.295C51.697 17.7005 50.9009 16.8736 50.3246 15.8166C49.7471 14.7597 49.459 13.5558 49.459 12.2062C49.459 10.8565 49.7471 9.67883 50.3246 8.62188C50.902 7.56493 51.697 6.73919 52.7096 6.14352C53.7221 5.54899 54.8496 5.25058 56.0934 5.25058C57.3371 5.25058 58.4601 5.54785 59.4647 6.14352C60.4681 6.73919 61.2585 7.56493 61.8371 8.62188C62.4146 9.67883 62.7027 10.8736 62.7027 12.2062C62.7027 13.5387 62.4134 14.7608 61.8371 15.8166C61.2597 16.8736 60.4692 17.7005 59.4647 18.295C58.4613 18.8907 57.3371 19.1879 56.0934 19.1879C54.8496 19.1879 53.7221 18.8907 52.7096 18.295ZM58.1059 16.1765C58.7187 15.803 59.2027 15.2699 59.5581 14.5775C59.9134 13.885 60.0911 13.0945 60.0911 12.2062C60.0911 11.3178 59.9134 10.5319 59.5581 9.84739C59.2027 9.16402 58.7187 8.63441 58.1059 8.26197C57.4932 7.88839 56.8223 7.70274 56.0934 7.70274C55.3645 7.70274 54.6947 7.88953 54.0809 8.26197C53.4681 8.63555 52.984 9.16402 52.6287 9.84739C52.2733 10.5319 52.0957 11.3178 52.0957 12.2062C52.0957 13.0945 52.2733 13.885 52.6287 14.5775C52.984 15.2699 53.4681 15.803 54.0809 16.1765C54.6936 16.5501 55.3645 16.7358 56.0934 16.7358C56.8223 16.7358 57.492 16.549 58.1059 16.1765Z" fill="#666666"/>
<path d="M77.626 18.9214H65.7935V0.26651H68.5919V16.2563H77.626V18.9214Z" fill="#666666"/>
<path d="M82.6628 2.98519H79.7847V0.320038H82.6628V2.98519ZM82.5295 18.9214H79.8917V5.51708H82.5295V18.9214Z" fill="#666666"/>
<path d="M86.1001 18.9214V5.51709H88.3655L88.632 6.9032H88.7652C89.1024 6.47723 89.6183 6.09454 90.3108 5.75741C91.0033 5.42028 91.8028 5.25058 92.7094 5.25058C93.739 5.25058 94.6593 5.48634 95.468 5.95673C96.2766 6.42826 96.9076 7.08885 97.3598 7.94192C97.8131 8.795 98.0397 9.77222 98.0397 10.8736V18.9214H95.4019V11.0866C95.4019 10.1276 95.091 9.32803 94.4691 8.68794C93.8472 8.04785 93.0739 7.72894 92.1514 7.72894C91.5295 7.72894 90.9566 7.88042 90.4327 8.18224C89.9088 8.4852 89.4953 8.89295 89.1935 9.40776C88.8905 9.9237 88.7402 10.4829 88.7402 11.0866V18.9214H86.1024H86.1001Z" fill="#666666"/>
<path d="M104.328 18.9214H101.69V0.26651H104.328V11.6196L109.845 5.51708H113.043L107.02 12.0729L113.31 18.9214H110.111L104.328 12.5524V18.9214Z" fill="#666666"/>
<path d="M122.423 18.9214H119.625V2.93166H113.762V0.26651H128.259V2.93166H122.423V18.9214Z" fill="#666666"/>
<path d="M133.723 18.9214H130.925V0.26651H133.723V18.9214Z" fill="#666666"/>
<path d="M141.463 17.9613C140.104 17.1446 139.025 16.0068 138.225 14.5501C137.426 13.0934 137.026 11.4408 137.026 9.59339C137.026 7.74601 137.426 6.09339 138.225 4.63667C139.025 3.17995 140.104 2.04328 141.463 1.22551C142.822 0.408884 144.328 0 145.98 0C147.402 0 148.689 0.289294 149.845 0.866743C151 1.44419 151.963 2.23007 152.737 3.22551C153.51 4.22096 154.046 5.3303 154.348 6.55695H151.444C151.053 5.40205 150.373 4.46469 149.405 3.74487C148.437 3.02506 147.296 2.66515 145.98 2.66515C144.861 2.66515 143.83 2.95444 142.889 3.53075C141.947 4.1082 141.201 4.92597 140.651 5.98292C140.1 7.03986 139.825 8.24374 139.825 9.59453C139.825 10.9453 140.101 12.1492 140.651 13.205C141.201 14.262 141.947 15.0797 142.889 15.6572C143.831 16.2346 144.862 16.5228 145.98 16.5228C147.33 16.5228 148.485 16.1538 149.445 15.4169C150.405 14.68 151.07 13.7073 151.444 12.4989H154.348C154.046 13.7608 153.513 14.8975 152.749 15.91C151.985 16.9226 151.026 17.7221 149.871 18.3087C148.716 18.8952 147.419 19.1879 145.98 19.1879C144.328 19.1879 142.822 18.779 141.463 17.9624V17.9613Z" fill="#666666"/>
</svg>
